<svg width="1329" height="220" viewBox="0 0 1329 220" fill="none" xmlns="http://www.w3.org/2000/svg">
<path d="M269.129 43.0022V176.873H297.015V121.74H351.148V176.873H379.034V43.0022H351.148V99.1618H297.015V43.0022H269.129Z" fill="#174A43"/>
<path fill-rule="evenodd" clip-rule="evenodd" d="M450.115 116.283L422.231 120.234C402.748 122.994 392.724 132.767 392.724 147.82C392.724 162.121 402.554 176.968 427.525 176.968C431.606 176.968 435.705 176.983 439.867 176.999C451.316 177.042 463.236 177.087 476.543 176.818V112.896C476.543 91.8192 461.051 81.6613 438.815 81.6613C428.427 81.6613 415.668 83.1667 401.451 86.3644V106.122C414.574 102.736 423.87 101.418 433.53 101.418C444.648 101.418 450.115 105.369 450.115 113.461V116.283ZM432.437 135.1L450.116 132.752V159.301C443.788 159.376 441.01 159.375 436.893 159.374L434.988 159.374C424.234 159.374 419.496 153.541 419.496 147.519C419.496 141.122 422.923 136.365 432.436 135.1H432.437Z" fill="#174A43"/>
<path d="M605.95 119.106C605.95 107.064 601.394 101.418 591.917 101.418C586.45 101.418 580.799 103.112 574.966 104.994C575.513 108.005 575.879 111.58 575.879 115.343V176.873H549.45V118.166C549.45 106.875 545.075 101.418 536.145 101.418C532.366 101.418 528.587 101.868 524.688 102.332L524.687 102.332C522.944 102.539 521.177 102.749 519.375 102.924V176.872H492.948V86.3644C509.169 83.9185 524.661 81.6613 541.43 81.6613C552.547 81.6613 560.932 84.1072 566.582 89.1876C578.977 85.0476 590.094 81.6613 602.306 81.6613C622.72 81.6613 632.38 92.5739 632.38 115.342V176.872H605.95V119.106Z" fill="#174A43"/>
<path d="M648.783 43.0022V176.872H675.21V131.149L705.467 176.872H735.72L700.18 126.069L735.72 82.7894H705.467L675.21 121.74V43.0022H648.783Z" fill="#174A43"/>
<path fill-rule="evenodd" clip-rule="evenodd" d="M776.549 178.002C749.575 178.002 731.348 164.078 731.348 134.912V124.751C731.348 95.5858 749.574 81.6623 776.549 81.6623C803.524 81.6623 821.75 95.0218 821.75 124.751V134.912C821.75 164.078 803.523 178.002 776.549 178.002ZM795.323 123.433C795.323 108.569 789.125 101.418 776.549 101.418C763.79 101.418 757.776 108.568 757.776 123.433V136.041C757.776 151.094 763.791 158.243 776.549 158.243C789.126 158.243 795.323 151.094 795.323 136.041V123.433Z" fill="#174A43"/>
<path d="M891.557 106.123V85.4239C887 82.7894 880.803 81.849 873.33 81.849C862.211 81.849 848.724 83.9185 835.237 86.3644V176.872H861.664V104.618C866.768 103.489 871.325 102.924 875.698 102.924C881.713 102.924 887 104.053 891.557 106.123Z" fill="#174A43"/>
<path d="M1241.74 44.8633V178.001H1267.96V132.527L1297.98 178.001H1328L1292.74 127.476L1328 84.4332H1297.98L1267.96 123.17V44.8633H1241.74Z" fill="#174A43"/>
<path fill-rule="evenodd" clip-rule="evenodd" d="M979.003 178.002H922.72V46.0538H975.907C1003.23 46.0538 1019.08 56.9869 1019.08 80.3601C1019.08 93.9323 1011.97 103.169 1002.5 108.636C1017.62 113.536 1026.36 124.469 1026.36 142C1026.36 166.315 1008.88 178.002 979.003 178.002ZM950.588 118.626V156.137H977.547C990.844 156.137 998.493 149.728 998.493 137.285C998.493 124.845 991.026 118.626 977.729 118.626H950.588ZM950.588 67.7319V99.5888H973.721C984.833 99.5888 991.207 94.4984 991.207 83.7534C991.207 73.0094 985.196 67.7319 973.721 67.7319H950.588Z" fill="#174A43"/>
<path fill-rule="evenodd" clip-rule="evenodd" d="M1069.29 121.515L1096.96 117.586L1096.96 117.588V114.781C1096.96 106.734 1091.54 102.804 1080.51 102.804C1070.92 102.804 1061.7 104.114 1048.68 107.483V87.8324C1062.78 84.6519 1075.44 83.1546 1085.75 83.1546C1107.81 83.1546 1123.18 93.2574 1123.18 114.218V177.789C1109.98 178.057 1098.15 178.013 1086.8 177.97H1086.79L1086.77 177.97H1086.76L1086.75 177.97H1086.74C1082.63 177.954 1078.58 177.939 1074.55 177.939C1049.77 177.939 1040.02 163.173 1040.02 148.95C1040.02 133.979 1049.96 124.26 1069.29 121.515ZM1096.96 133.963L1079.42 136.3C1069.98 137.556 1066.58 142.288 1066.58 148.65C1066.58 154.638 1071.28 160.439 1081.95 160.439C1082.62 160.439 1083.25 160.439 1083.85 160.439C1087.93 160.441 1090.69 160.442 1096.96 160.368V133.963Z" fill="#174A43"/>
<path d="M1182.47 102.414C1192.3 102.414 1197.22 107.504 1197.22 118.25V178.002H1223.63V116.363C1223.63 93.5553 1211.98 82.6222 1187.93 82.6222C1170.44 82.6222 1154.23 84.8835 1138.02 87.3337V178.001H1164.43V104.11C1165.49 103.977 1166.55 103.839 1167.6 103.7L1167.61 103.699C1172.52 103.052 1177.37 102.413 1182.47 102.413L1182.47 102.414Z" fill="#174A43"/>
<path d="M72.3792 213.338C129.444 234.111 192.542 204.684 213.312 147.612C226.476 111.44 219.478 72.8444 198.058 44.139L188.963 69.1311C199.978 90.4348 202.394 116.103 193.545 140.417C176.749 186.571 125.722 210.368 79.5737 193.569C76.8457 192.576 74.1959 191.463 71.6279 190.239L96.9665 120.614H115.282L99.4327 164.163L136.029 164.256L185.037 29.5908C174.543 19.7841 161.942 11.8849 147.594 6.66193C90.5289 -14.1106 27.4311 15.316 6.66112 72.388C-6.5028 108.56 0.495625 147.156 21.9151 175.861L31.0103 150.869C19.9955 129.565 17.5793 103.897 26.4278 79.5834C43.2244 33.4294 94.2512 9.63231 140.4 26.431C143.127 27.424 145.777 28.5366 148.345 29.7608L122.938 99.5758H104.623L120.54 55.8367L83.9438 55.7443L34.9357 190.409C45.4304 200.216 58.031 208.115 72.3792 213.338Z" fill="#17A755"/>
</svg>
